# xmcd
#
# Track frame offsets: 
#        150
#        30562
#        52609
#        70980
#        90450
#        132023
#
# Disc length: 1889 seconds
#
# Revision: 0
# Processed by: cddbd v1.5.2PL0 Copyright (c) Steve Scherf et al.
# Submitted via: ExactAudioCopy v1.3
#
DISCID=3f075f06
DTITLE=Wode - Servants Of The Countercosmos
DYEAR=2017
DGENRE=Black Metal
TTITLE0=Crypt Of Creation
TTITLE1=Celestial Dagger
TTITLE2=Temple Interment
TTITLE3=Servants Of The Countercosmos
TTITLE4=Chaosspell
TTITLE5=Undoing
EXTD=
EXTT0=
EXTT1=
EXTT2=
EXTT3=
EXTT4=
EXTT5=
PLAYORDER=
